<svg viewBox="0 0 1680 284" xmlns="http://www.w3.org/2000/svg"><path d="M159.745 279.541h-10.833V131.624c-.417-22.083-5-38.333-14.584-49.166-9.583-10.834-25-16.25-45.833-16.25A70.417 70.417 0 0 0 29.328 98.29a109.167 109.167 0 0 0-18.333 42.083V279.54H.162v-220h10.833v52.083a95.833 95.833 0 0 1 32.083-41.667 79.167 79.167 0 0 1 45.834-14.583 79.167 79.167 0 0 1 45.416 12.083c11.667 8.334 19.584 21.667 23.334 40a87.083 87.083 0 0 1 80.833-52.083c23.75 0 41.25 6.667 52.917 20 11.667 13.334 17.5 33.75 17.5 60.417v143.75h-10.833v-142.5c0-24.167-5-42.083-14.584-53.75-9.583-11.667-25-17.084-45.833-17.084a77.083 77.083 0 0 0-63.334 32.084 69.583 69.583 0 0 0-14.583 35v146.25zm274.368 4.167a89.583 89.583 0 0 1-49.167-14.584 98.75 98.75 0 0 1-34.583-39.166 123.333 123.333 0 0 1-12.917-55.417v-9.167c0-20.416 4.167-39.166 12.5-56.25a97.083 97.083 0 0 1 33.333-39.583 82.917 82.917 0 0 1 46.667-14.167c24.583 0 44.583 8.75 60.417 26.25a100 100 0 0 1 23.333 68.75v11.667h-165v12.083c0 17.917 3.75 34.584 11.25 49.584a87.5 87.5 0 0 0 31.25 35.833 75 75 0 0 0 42.917 12.917 94.583 94.583 0 0 0 37.916-7.084 82.5 82.5 0 0 0 27.5-22.916l7.5 5.416a83.333 83.333 0 0 1-72.916 35.834zm-4.167-217.5a71.667 71.667 0 0 0-54.583 24.166 100.417 100.417 0 0 0-26.25 60.834h153.333v-2.5a92.5 92.5 0 0 0-9.167-41.667 70.833 70.833 0 0 0-63.333-40.834zM568.66-.043v59.584h50v10.833h-50v156.25c0 15.834 2.5 27.5 7.5 35 5.416 7.084 13.75 10.834 25.833 10.834a152.5 152.5 0 0 0 21.666-1.667l1.667 10.417a71.667 71.667 0 0 1-22.917 2.5c-15.833 0-27.5-4.584-34.166-13.334-7.084-9.166-10.417-22.916-10.834-42.083V70.374h-40.416V59.541h40.416V-.043h11.25zm228.5 279.584a165.417 165.417 0 0 1-3.75-40.417 90.833 90.833 0 0 1-35.834 32.917 112.5 112.5 0 0 1-50.833 11.667 69.583 69.583 0 0 1-49.167-16.667 55.417 55.417 0 0 1-18.75-43.333c0-20 9.167-36.25 27.5-48.334a132.083 132.083 0 0 1 72.5-18.75h54.583v-32.083a54.167 54.167 0 0 0-17.5-42.917c-11.666-10.416-28.333-15.417-50-15.417a81.25 81.25 0 0 0-50 15.417 47.917 47.917 0 0 0-20.416 38.334l-10.834-.417c0-17.917 7.917-32.917 23.75-45.417a89.167 89.167 0 0 1 57.5-18.75 83.333 83.333 0 0 1 56.667 17.917 62.5 62.5 0 0 1 21.667 50v105c0 24.167 1.666 40.833 5.833 49.583v1.667H797.16zm-90.417-7.083a97.917 97.917 0 0 0 52.916-13.75 85 85 0 0 0 33.75-38.75v-52.5h-51.25a118.75 118.75 0 0 0-72.083 18.75 47.083 47.083 0 0 0-20.417 38.333c0 13.333 5.417 24.583 16.25 34.167a60.417 60.417 0 0 0 40.834 13.75zm208.967-10.417 79.166-202.5h12.083l-85.833 220h-10.833l-85.417-220h11.667l79.166 202.5zm190.073 21.667a89.583 89.583 0 0 1-49.167-14.584 98.75 98.75 0 0 1-34.583-39.166 123.333 123.333 0 0 1-12.917-55.417v-9.167c0-20.416 4.167-39.166 12.5-56.25a97.083 97.083 0 0 1 33.333-39.583 82.917 82.917 0 0 1 46.667-14.167c24.583 0 44.583 8.75 60.417 26.25a100 100 0 0 1 23.333 68.75v11.667h-165v12.083c0 17.917 3.75 34.584 11.25 49.584a87.5 87.5 0 0 0 31.25 35.833 75 75 0 0 0 42.917 12.917 94.583 94.583 0 0 0 37.916-7.084 82.5 82.5 0 0 0 27.5-22.916l7.5 5.416a83.333 83.333 0 0 1-72.916 35.834zm-4.167-217.5a71.667 71.667 0 0 0-54.583 24.166 100.417 100.417 0 0 0-26.25 60.834h153.333v-2.5a92.5 92.5 0 0 0-9.167-41.667 70.833 70.833 0 0 0-63.333-40.834zm211.214 1.249-14.167-1.25a65.417 65.417 0 0 0-47.084 18.334 93.333 93.333 0 0 0-25 50.833v144.167h-10.833v-220h10.833v45.833a83.75 83.75 0 0 1 27.084-36.667 72.917 72.917 0 0 1 60.416-11.25l-1.25 10zm157.28 158.334c0-27.083-22.917-45-68.334-54.583a136.25 136.25 0 0 1-57.5-22.5 47.917 47.917 0 0 1-15.833-37.917c0-16.25 6.666-29.167 20.416-39.584a82.917 82.917 0 0 1 53.334-15.833c23.75 0 42.5 5.833 57.083 17.084a55.833 55.833 0 0 1 21.667 45.833h-11.25a45.417 45.417 0 0 0-18.75-37.083 75.833 75.833 0 0 0-48.75-15 72.083 72.083 0 0 0-45.834 12.916 37.5 37.5 0 0 0-17.083 31.25c0 10 2.083 17.917 6.25 23.334 4.167 5.833 11.25 10.833 20.833 15.416a203.333 203.333 0 0 0 41.25 12.917c18.334 4.167 32.5 9.167 43.334 15 10.416 5.833 18.333 12.5 22.916 20a56.667 56.667 0 0 1 7.084 28.75 50 50 0 0 1-21.25 42.083 92.917 92.917 0 0 1-56.25 15.834 97.083 97.083 0 0 1-59.584-17.084 50.833 50.833 0 0 1-22.5-42.916h10.834a45 45 0 0 0 20.416 35.833 87.5 87.5 0 0 0 50.834 12.917 77.083 77.083 0 0 0 47.916-13.75c12.5-9.167 18.75-20 18.75-32.917zm129.813 57.917a89.583 89.583 0 0 1-49.167-14.584 98.75 98.75 0 0 1-34.583-39.166 123.333 123.333 0 0 1-12.917-55.417v-9.167c0-20.416 4.167-39.166 12.5-56.25a97.083 97.083 0 0 1 33.333-39.583 82.917 82.917 0 0 1 46.667-14.167c24.583 0 44.583 8.75 60.417 26.25a100 100 0 0 1 23.333 68.75v11.667h-165v12.083c0 17.917 3.75 34.584 11.25 49.584a87.5 87.5 0 0 0 31.25 35.833 75 75 0 0 0 42.917 12.917 94.583 94.583 0 0 0 37.916-7.084 82.5 82.5 0 0 0 27.5-22.916l7.5 5.416a83.333 83.333 0 0 1-72.916 35.834zm-4.167-217.5a71.667 71.667 0 0 0-54.583 24.166 100.417 100.417 0 0 0-26.25 60.834h153.333v-2.5a92.5 92.5 0 0 0-9.167-41.667 70.833 70.833 0 0 0-63.333-40.834z"/></svg>