<svg viewBox="0 0 85 86" xmlns="http://www.w3.org/2000/svg" fill-rule="evenodd" clip-rule="evenodd" stroke-linejoin="round" stroke-miterlimit="2"><path d="M29.668 68.053c2.208 0 4 1.792 4 4v9.014c0 2.208-1.792 4-4 4H4.025c-2.208 0-4-1.792-4-4v-9.014c0-2.208 1.792-4 4-4h25.643zm50.442 0c2.208 0 4 1.792 4 4v9.014c0 2.208-1.792 4-4 4H54.488c-2.208 0-4-1.792-4-4v-9.014c0-2.208 1.792-4 4-4H80.11zm.011-34.027c2.208 0 4 1.792 4 4v9.014c0 2.208-1.792 4-4 4H4c-2.208 0-4-1.792-4-4v-9.014c0-2.208 1.792-4 4-4h76.121zM80.131 0c2.208 0 4 1.792 4 4v9.013c0 2.208-1.792 4-4 4H71.31c-2.208 0-4-1.792-4-4V4c0-2.208 1.792-4 4-4h8.821zM46.494 0c2.208 0 4 1.792 4 4v9.013c0 2.208-1.792 4-4 4H4.025c-2.208 0-4-1.792-4-4V4c0-2.208 1.792-4 4-4h42.469z" fill="#fff"/></svg>