<svg viewBox="0 0 136 133" xmlns="http://www.w3.org/2000/svg" fill-rule="evenodd" clip-rule="evenodd" stroke-linejoin="round" stroke-miterlimit="1.414"><path d="M67.867 0C30.387 0 0 30.387 0 67.875c0 29.987 19.446 55.425 46.417 64.404 3.396.62 4.633-1.475 4.633-3.275 0-1.609-.058-5.88-.092-11.542-18.879 4.1-22.862-9.1-22.862-9.1-3.088-7.837-7.538-9.925-7.538-9.925-6.162-4.212.467-4.129.467-4.129 6.813.483 10.396 6.996 10.396 6.996 6.054 10.37 15.887 7.375 19.754 5.641.617-4.387 2.367-7.379 4.308-9.075-15.07-1.712-30.916-7.537-30.916-33.545 0-7.409 2.646-13.467 6.987-18.213-.7-1.717-3.029-8.617.663-17.962 0 0 5.7-1.825 18.666 6.958 5.413-1.504 11.221-2.258 16.992-2.283 5.763.025 11.57.779 16.992 2.283 12.958-8.783 18.646-6.958 18.646-6.958 3.704 9.345 1.375 16.245.675 17.962 4.35 4.746 6.979 10.804 6.979 18.213 0 26.075-15.871 31.812-30.992 33.491 2.438 2.096 4.608 6.238 4.608 12.571 0 9.071-.083 16.392-.083 18.617 0 1.816 1.22 3.929 4.667 3.266 26.95-8.995 46.379-34.416 46.379-64.395C135.746 30.387 105.354 0 67.866 0" fill="#181717"/></svg>