<svg viewBox="0 0 339 314" xmlns="http://www.w3.org/2000/svg" fill-rule="evenodd" clip-rule="evenodd" stroke-linejoin="round" stroke-miterlimit="2"><path d="M337.966 175.57l-17.78-54.63a7.691 7.691 0 00-.43-1.47l-35.67-109.8A14.21 14.21 0 00270.546 0a13.971 13.971 0 00-13.38 9.75l-34 104.63h-107.31L81.806 9.75C79.979 3.954 74.563-.011 68.486 0h-.08a14.25 14.25 0 00-13.5 9.76l-35.7 109.93c0 .1-.08.18-.11.28l-18.1 55.61c-2.721 8.345.267 17.553 7.37 22.71l156.38 113.63a8.017 8.017 0 009.45-.05l156.41-113.58c7.106-5.159 10.092-14.374 7.36-22.72zm-233.75-45.13l43.59 134.16-104.64-134.16h61.05zm87 134.19l41.8-128.62 1.8-5.57h61.1l-94.67 121.28-10.03 12.91zm79.47-244.58l30.63 94.33h-61.31l30.68-94.33zm-52.71 110.33l-30.37 93.46-18.12 55.66-48.42-149.12h96.91zM68.336 20.05l30.69 94.33h-61.27l30.58-94.33zm-50.56 165.3a4.32 4.32 0 01-1.56-4.83l13.44-41.3 98.57 126.37-110.45-80.24zm303.43 0l-110.46 80.21.37-.48 98.2-125.86 13.44 41.28a4.32 4.32 0 01-1.55 4.84v.01z" fill="#fff" fill-rule="nonzero"/></svg>