<svg viewBox="0 0 338 311" xmlns="http://www.w3.org/2000/svg" fill-rule="evenodd" clip-rule="evenodd" stroke-linejoin="round" stroke-miterlimit="2"><path d="M5.289 192.192a12.907 12.907 0 01-4.66-14.39l18.91-58.12.01.012.02-.062 37.36-115.21A6.475 6.475 0 0163.059 0a6.475 6.475 0 016.13 4.422l9.974 30.709 27.496 84.491h124.283l37.417-115.2a6.483 6.483 0 016.135-4.415 6.483 6.483 0 016.135 4.415l.011.033.009.027 37.401 115.14h.039l-.028.036.008.024h-.026l.006.02 18.91 58.12c.354 1.104.55 2.232.599 3.354a12.883 12.883 0 01-5.279 11.016l-25.118 18.238-138.372 100.562-163.5-118.8z" fill="#fff" fill-rule="nonzero"/></svg>