<svg viewBox="0 0 338 311" xmlns="http://www.w3.org/2000/svg" fill-rule="evenodd" clip-rule="evenodd" stroke-linejoin="round" stroke-miterlimit="2"><path d="M336.959 177.822l-18.91-58.12-37.42-115.28a6.483 6.483 0 00-6.135-4.415 6.483 6.483 0 00-6.135 4.415l-37.42 115.21h-124.33L69.189 4.422A6.475 6.475 0 0063.059 0a6.475 6.475 0 00-6.13 4.422l-37.36 115.21-18.91 58.19a12.907 12.907 0 004.66 14.39l163.47 118.78 163.44-118.78a12.929 12.929 0 004.73-14.39" fill="#fc6d26" fill-rule="nonzero"/><path d="M168.789 310.902l62.16-191.28h-124.29l62.13 191.28z" fill="#e24329" fill-rule="nonzero"/><path d="M168.789 310.902l-62.18-191.28h-87l149.18 191.28z" fill="#fc6d26" fill-rule="nonzero"/><path d="M19.539 119.682l-18.91 58.12a12.907 12.907 0 004.66 14.39l163.5 118.8-149.25-191.31z" fill="#fca326" fill-rule="nonzero"/><path d="M19.569 119.682h87.11l-37.49-115.2A6.483 6.483 0 0063.054.067a6.483 6.483 0 00-6.135 4.415l-37.35 115.2z" fill="#e24329" fill-rule="nonzero"/><path d="M168.789 310.902l62.16-191.28h87.14l-149.3 191.28z" fill="#fc6d26" fill-rule="nonzero"/><path d="M318.029 119.682l18.91 58.12a12.877 12.877 0 01-4.66 14.39l-163.49 118.71 149.2-191.22h.04z" fill="#fca326" fill-rule="nonzero"/><path d="M318.069 119.682h-87.1l37.42-115.2a6.475 6.475 0 016.13-4.422 6.475 6.475 0 016.13 4.422l37.42 115.2z" fill="#e24329" fill-rule="nonzero"/></svg>