<svg version="1.0" xmlns="http://www.w3.org/2000/svg" width="1365.333" height="1365.333" viewBox="0 0 1024 1024"><path d="M489 1.1C332.5 7.6 186.7 87.2 94.9 216 16.6 326-14.7 462.5 7.6 597 29.7 730.1 104.9 850 216 929.1c80.8 57.5 175.8 89.9 275.2 93.8 144.1 5.7 280.5-47.6 382.3-149.4 91.7-91.7 144.3-211.7 149.4-340.7 5.7-144.1-47.6-280.5-149.4-382.3-83-83-188.7-133.8-305.7-147C556 2.2 512.5-.2 508 .2c-.8 0-9.4.4-19 .9zm132.5 137.6c29.1 5 56.1 19 77.6 40.3 13 12.8 20.6 23.1 27.9 37.5 11 21.6 14.5 36.6 14.4 61 0 14.4-.4 18.5-2.4 27l-2.5 10-.2 286.2L736 887l-111.3.2c-134.5.4-182.7 0-201.2-1.3-26.4-1.8-46.9-5.6-66-12-23.7-8.1-39.7-17.9-56.5-34.8-23.4-23.5-37.4-50.2-46.4-88.1-6-25.4-6-24.1-6.3-117.3l-.4-85.7H186V304h62V200h231.8l4.5-6.1c24.4-32.8 63.3-54 104.7-57.2 7.5-.6 22.9.4 32.5 2z"/><path d="M583.5 218.4c-13.9 2.7-23.7 7.7-32.4 16.6-10.3 10.4-15.1 23.4-15.1 40.5 0 20.8 7.9 36.3 23.8 46.9 10.6 7 20.2 9.8 35.4 10.4 19.2.7 30.8-2.4 43.5-11.4a54.48 54.48 0 0 0 20.9-30.1c2.1-7.9 2.1-24.1-.1-32.3-4.9-19-20.6-34.2-41-39.5-8.4-2.2-26.4-2.8-35-1.1zM328 333v52h-61v82h61v114.2c0 65.8.4 119.4 1 126.3 4.4 53.3 27.2 86.2 69.3 99.9 28.6 9.3 69.6 9.3 108 0l10.7-2.6v-85.1l-5.2.7c-2.9.4-12.3.9-20.8 1.2-31.5 1.2-43.8-5.3-48.4-25.7-1.4-5.9-1.6-21-1.6-117.8V467h72v-82h-72V281H328v52zm214 263v211h113V385H542v211z"/></svg>