<svg viewBox="0 0 43 44" xmlns="http://www.w3.org/2000/svg" fill-rule="evenodd" clip-rule="evenodd" stroke-linejoin="round" stroke-miterlimit="2"><g transform="translate(-2 -2)"><clipPath id="a"><path d="M44.5 20H24v8.5h11.8C34.7 33.9 30.1 37 24 37c-7.2 0-13-5.8-13-13s5.8-13 13-13c3.1 0 5.9 1.1 8.1 2.9l6.4-6.4C34.6 4.1 29.6 2 24 2 11.8 2 2 11.8 2 24s9.8 22 22 22c11 0 21-8 21-22 0-1.3-.2-2.7-.5-4z"/></clipPath><g clip-path="url(#a)"><path d="M0 37V11l17 13L0 37z" fill="#fbbc05" fill-rule="nonzero"/></g></g><g transform="translate(-2 -2)"><clipPath id="b"><path d="M44.5 20H24v8.5h11.8C34.7 33.9 30.1 37 24 37c-7.2 0-13-5.8-13-13s5.8-13 13-13c3.1 0 5.9 1.1 8.1 2.9l6.4-6.4C34.6 4.1 29.6 2 24 2 11.8 2 2 11.8 2 24s9.8 22 22 22c11 0 21-8 21-22 0-1.3-.2-2.7-.5-4z"/></clipPath><g clip-path="url(#b)"><path d="M0 11l17 13 7-6.1L48 14V0H0v11z" fill="#ea4335" fill-rule="nonzero"/></g></g><g transform="translate(-2 -2)"><clipPath id="c"><path d="M44.5 20H24v8.5h11.8C34.7 33.9 30.1 37 24 37c-7.2 0-13-5.8-13-13s5.8-13 13-13c3.1 0 5.9 1.1 8.1 2.9l6.4-6.4C34.6 4.1 29.6 2 24 2 11.8 2 2 11.8 2 24s9.8 22 22 22c11 0 21-8 21-22 0-1.3-.2-2.7-.5-4z"/></clipPath><g clip-path="url(#c)"><path d="M0 37l30-23 7.9 1L48 0v48H0V37z" fill="#34a853" fill-rule="nonzero"/></g></g><g transform="translate(-2 -2)"><clipPath id="d"><path d="M44.5 20H24v8.5h11.8C34.7 33.9 30.1 37 24 37c-7.2 0-13-5.8-13-13s5.8-13 13-13c3.1 0 5.9 1.1 8.1 2.9l6.4-6.4C34.6 4.1 29.6 2 24 2 11.8 2 2 11.8 2 24s9.8 22 22 22c11 0 21-8 21-22 0-1.3-.2-2.7-.5-4z"/></clipPath><g clip-path="url(#d)"><path d="M48 48L17 24l-4-3 35-10v37z" fill="#4285f4" fill-rule="nonzero"/></g></g></svg>