<svg viewBox="0 0 174 573" xmlns="http://www.w3.org/2000/svg" fill-rule="evenodd" clip-rule="evenodd" stroke-linejoin="round" stroke-miterlimit="2"><path d="M0 364.799c0-18.463 14.99-33.453 33.453-33.453h140.36l-40 40v167.871c0 18.463-14.99 33.453-33.453 33.453H0V364.799z" fill="#e91e63"/><path d="M96.504 287.759c0-3.3-1-6.1-2.9-8.5-2-2.4-4.4-3.7-7.4-4v-8.5c3.1.1 6 1.2 8.7 3.1 2.7 1.9 4.9 4.5 6.5 7.7 1.7 3.2 2.5 6.6 2.5 10.2 0 7.2-2.4 12.9-7.2 17.1-4.8 4.3-11.4 6.4-19.7 6.4h-1.5c-5.2 0-9.8-.9-13.8-2.8s-7.1-4.6-9.3-8.2c-2.2-3.5-3.3-7.7-3.3-12.5 0-5.9 1.8-10.8 5.3-14.7 3.6-4 8.2-6.1 13.8-6.3v8.5c-3.4.3-6.2 1.6-8.4 3.9s-3.3 5.2-3.3 8.6c0 4.6 1.7 8.2 5 10.7s8.1 3.8 14.3 3.8h1.7c6.1 0 10.8-1.3 14.1-3.8 3.3-2.5 4.9-6.1 4.9-10.7zm-68.6-26.943v-9h75v9h-75zm48.1-16.068c-5.2 0-9.8-1.1-14-3.1-4.1-2-7.3-4.9-9.5-8.5-2.3-3.6-3.4-7.8-3.4-12.4 0-7.2 2.5-13 7.5-17.5 4.9-4.4 11.6-6.6 19.8-6.6h.7c5.1 0 9.7.9 13.8 2.9 4.1 2 7.3 4.8 9.6 8.5 2.2 3.6 3.4 7.8 3.4 12.6 0 7.1-2.5 12.9-7.5 17.4-5 4.4-11.6 6.7-19.8 6.7h-.6zm1.1-9.1c5.8 0 10.5-1.4 14.1-4.1 3.5-2.7 5.3-6.4 5.3-10.9 0-4.6-1.8-8.3-5.4-11-3.6-2.7-8.6-4-15.1-4-5.8 0-10.5 1.4-14.1 4.1-3.6 2.8-5.4 6.4-5.4 11 0 4.4 1.8 8 5.3 10.8 3.6 2.7 8.7 4.1 15.3 4.1zm20.6-78.031c4.1 3.6 6.2 8.7 6.2 15.5 0 5.7-1.7 9.9-4.9 12.9-3.3 2.9-8.1 4.4-14.6 4.5h-34.3v-9.1h34.1c8 0 12-3.2 12-9.7 0-6.9-2.6-11.5-7.7-13.8h-38.4v-9h52.8v8.6l-5.2.1zm-21.7-15.227c-8.1 0-14.6-2-19.5-5.8s-7.4-8.9-7.4-15.1c0-6.2 2.1-11.1 6.3-14.7h-27.5v-9h75v8.3l-5.7.4c4.5 3.6 6.7 8.7 6.7 15.1 0 6.1-2.5 11.1-7.5 15-5.1 3.8-11.6 5.8-19.7 5.8h-.7zm1.1-9.1c6 0 10.6-1.2 14-3.7 3.4-2.5 5.1-5.9 5.1-10.2 0-5.8-2.6-9.9-7.7-12.6h-24.3c-5 2.7-7.4 6.9-7.4 12.5 0 4.4 1.7 7.8 5.1 10.3 3.4 2.5 8.5 3.7 15.2 3.7zm13.5-81.753l-40.5-13.1v-9.2l52.8 19v6.8l-52.8 19.2v-9.2l40.5-13.5zM58.204 0c-.3 1.4-.4 2.9-.4 4.5 0 5.9 2.6 9.9 7.6 12h37.5v9.1h-52.8v-8.8l6.1-.2c-4.7-2.9-7.1-7.1-7.1-12.6 0-1.7.2-3.1.7-4h8.4z" fill="#fff" fill-rule="nonzero"/><path d="M44.991 408.181H19.85v-38.267h.009l-.001-.042c0-10.137 7.854-18.367 17.528-18.367l.192.001h76.253v56.675h-4.068c3.151 5.694 4.954 12.295 4.954 19.331 0 11.963-5.211 22.669-13.4 29.796l12.499 4.254-.028 65.925c.01.314.015.63.015.947 0 13.452-9.035 24.374-20.164 24.374l-.219-.001H71.329v7.697H40.994v-7.697H28.025v-28.433c-4.825-3.273-8.02-8.963-8.02-15.429 0-10.137 7.853-18.367 17.527-18.367.858 0 1.702.065 2.527.19v-61.91a40.104 40.104 0 01-.022-1.346c0-7.036 1.803-13.637 4.954-19.331z" fill="#fff"/><path d="M37.999 528.684h12.989v-9.033h10.351v9.033h26.367c1.954 0 3.353-.374 4.2-1.123.846-.748 1.269-2.181 1.269-4.296 0-1.563-.114-2.946-.342-4.151h10.694a29.072 29.072 0 011.269 8.545c0 9.896-4.996 14.941-14.99 15.137H61.339v7.715H50.988v-7.715H37.999v-14.112zm38.916-76.015c-5.24 0-9.912-1.009-14.013-3.028-4.102-2.018-7.276-4.923-9.522-8.715-2.246-3.793-3.369-8.195-3.369-13.208 0-7.129 2.181-12.948 6.543-17.456 4.362-4.509 10.287-7.024 17.774-7.544l3.613-.098c8.105 0 14.608 2.262 19.507 6.787 4.899 4.525 7.348 10.596 7.348 18.213 0 7.617-2.441 13.696-7.324 18.237-4.883 4.541-11.523 6.812-19.922 6.812h-.635zm26.905-68.633v14.16h-75v-14.16h75zm0 117.861v14.16H50.988v-14.16h52.832zm0-139.375v14.16H50.988v-14.16h52.832zm0 106.241v13.476l-52.832 17.822v-14.746l35.595-9.814-35.595-9.815V450.94l52.832 17.823zm-25.903-30.206c5.021 0 8.86-.944 11.517-2.832s3.985-4.589 3.985-8.105c0-3.418-1.312-6.087-3.936-8.008-2.625-1.92-6.822-2.881-12.593-2.881-4.923 0-8.737.961-11.443 2.881-2.706 1.921-4.059 4.623-4.059 8.106 0 3.45 1.345 6.119 4.035 8.007 2.689 1.888 6.854 2.832 12.494 2.832zm-40.601 78.331c-2.116 0-3.858-.708-5.225-2.124-1.367-1.416-2.051-3.345-2.051-5.787 0-2.408.684-4.329 2.051-5.761 1.367-1.433 3.109-2.149 5.225-2.149 2.148 0 3.906.725 5.273 2.173 1.367 1.449 2.051 3.361 2.051 5.737 0 2.377-.684 4.289-2.051 5.738-1.367 1.448-3.125 2.173-5.273 2.173zm0-139.375c-2.116 0-3.858-.708-5.225-2.124-1.367-1.416-2.051-3.345-2.051-5.787 0-2.408.684-4.329 2.051-5.761 1.367-1.433 3.109-2.149 5.225-2.149 2.148 0 3.906.725 5.273 2.173 1.367 1.449 2.051 3.361 2.051 5.737 0 2.377-.684 4.289-2.051 5.738-1.367 1.448-3.125 2.173-5.273 2.173z" fill-rule="nonzero"/><path fill="#f44336" d="M118.033 311.307v-284.3h55.7v284.3z"/><path d="M148.096 278.198v10.4h8.82v-12.312h5.553v19.027h-33.18v-18.98h5.6v12.265h7.84v-10.4h5.367z" fill="#fff" fill-rule="nonzero"/><path d="M155.656 258.95v9.094l6.813 1.772v7.089l-33.18-10.354v-6.11l33.18-10.446v7.136l-6.813 1.819zm-5.553 7.648v-6.203l-11.854 3.125 11.854 3.078zm.233-27.383v3.31h12.133v6.67h-33.18v-10.68c0-3.358.887-5.923 2.614-7.742 1.726-1.865 4.2-2.751 7.42-2.751 4.386 0 7.466 1.585 9.24 4.803l13.58-5.83h.326v7.23l-12.133 4.99zm-5.553 3.311v-3.824c0-1.306-.467-2.332-1.354-2.985-.886-.653-2.053-1.026-3.546-1.026-3.36 0-4.994 1.306-4.994 3.917v3.918h9.894zm12.133-23.491v-11.754h5.553v18.469h-33.18v-6.715h27.627zm-12.74-16.897l-14.887-4.99v-7.322l21.14 8.908h12.04v6.762h-12.04l-21.14 8.908v-7.276l14.887-4.99zm11.48-37.213v9.094l6.813 1.772v7.089l-33.18-10.354v-6.11l33.18-10.446v7.136l-6.813 1.819zm-5.553 7.648v-6.203l-11.854 3.125 11.854 3.078zm1.307-39.357c3.78.186 6.673 1.212 8.586 3.17 1.96 1.96 2.94 4.758 2.94 8.302 0 3.731-1.26 6.623-3.733 8.628-2.427 2.005-5.974 2.985-10.547 2.985h-5.6c-4.527 0-8.027-1.026-10.5-3.078-2.473-2.099-3.733-4.944-3.733-8.628 0-3.591 1.026-6.343 3.033-8.208 2.053-1.912 4.947-2.985 8.727-3.218v6.716c-2.334.046-3.967.42-4.854 1.072-.886.653-1.353 1.866-1.353 3.638 0 1.772.653 3.078 1.913 3.824s3.314 1.12 6.16 1.166h6.3c3.267 0 5.554-.373 6.767-1.12 1.213-.699 1.867-2.005 1.867-3.777 0-1.772-.467-2.985-1.307-3.638-.84-.652-2.427-1.072-4.667-1.165v-6.67l.001.001zm0-24.266c3.78.187 6.673 1.213 8.586 3.172 1.96 1.959 2.94 4.757 2.94 8.301 0 3.731-1.26 6.623-3.733 8.628-2.427 2.005-5.974 2.985-10.547 2.985h-5.6c-4.527 0-8.027-1.026-10.5-3.078-2.473-2.099-3.733-4.944-3.733-8.628 0-3.591 1.026-6.343 3.033-8.208 2.053-1.912 4.947-2.985 8.727-3.218v6.716c-2.334.046-3.967.42-4.854 1.072-.886.653-1.353 1.866-1.353 3.638 0 1.772.653 3.078 1.913 3.824s3.314 1.12 6.16 1.166h6.3c3.267 0 5.554-.373 6.767-1.12 1.213-.699 1.867-2.005 1.867-3.777 0-1.772-.467-2.985-1.307-3.638-.84-.652-2.427-1.072-4.667-1.165v-6.67h.001zm-3.314-18.902v10.4h8.82V88.136h5.553v19.027h-33.18v-18.98h5.6v12.265h7.84v-10.4h5.367zm5.647-17.43c-1.307 0-2.334.327-3.034 1.026-.7.7-1.4 1.96-2.146 3.778-1.26 3.311-2.754 5.69-4.434 7.135-1.726 1.493-3.686 2.192-6.02 2.192-2.8 0-5.04-.98-6.72-2.938-1.726-2.005-2.566-4.524-2.566-7.555 0-2.052.42-3.87 1.306-5.456.84-1.586 2.054-2.799 3.64-3.685 1.54-.84 3.314-1.259 5.32-1.259v6.67c-1.54 0-2.706.326-3.546.978-.794.653-1.214 1.586-1.214 2.845 0 1.166.327 2.099 1.027 2.752.7.653 1.633.98 2.8.98.933 0 1.727-.374 2.473-1.12.747-.7 1.494-2.005 2.287-3.87 1.167-3.219 2.613-5.55 4.293-7.043 1.727-1.446 3.874-2.192 6.487-2.192 2.893 0 5.18.933 6.813 2.752 1.587 1.865 2.427 4.337 2.427 7.508 0 2.145-.467 4.104-1.353 5.83-.84 1.772-2.1 3.171-3.78 4.15-1.634.98-3.547 1.493-5.787 1.493v-6.716c1.913 0 3.313-.373 4.153-1.12.887-.745 1.307-1.958 1.307-3.637 0-2.332-1.213-3.498-3.733-3.498zm0-22.853c-1.307 0-2.334.327-3.034 1.026-.7.7-1.4 1.96-2.146 3.778-1.26 3.311-2.754 5.69-4.434 7.135-1.726 1.493-3.686 2.192-6.02 2.192-2.8 0-5.04-.98-6.72-2.938-1.726-2.005-2.566-4.524-2.566-7.555 0-2.052.42-3.87 1.306-5.456.84-1.586 2.054-2.799 3.64-3.685 1.54-.84 3.314-1.259 5.32-1.259v6.67c-1.54 0-2.706.326-3.546.978-.794.653-1.214 1.586-1.214 2.845 0 1.166.327 2.099 1.027 2.752.7.653 1.633.98 2.8.98.933 0 1.727-.374 2.473-1.12.747-.7 1.494-2.005 2.287-3.87 1.167-3.219 2.613-5.55 4.293-7.043 1.727-1.446 3.874-2.192 6.487-2.192 2.893 0 5.18.933 6.813 2.752 1.587 1.865 2.427 4.337 2.427 7.508 0 2.145-.467 4.104-1.353 5.83-.84 1.772-2.1 3.171-3.78 4.15-1.634.98-3.547 1.493-5.787 1.493V58.02c1.913 0 3.313-.373 4.153-1.12.887-.745 1.307-1.958 1.307-3.637 0-2.332-1.213-3.498-3.733-3.498z" fill="#fff" fill-rule="nonzero"/></svg>