<svg viewBox="0 0 584 174" xmlns="http://www.w3.org/2000/svg" fill-rule="evenodd" clip-rule="evenodd" stroke-linejoin="round" stroke-miterlimit="2"><path d="M207.871 0c18.463 0 33.453 14.99 33.453 33.453v140.36l-40-40H33.453C14.99 133.813 0 118.823 0 100.36V0h207.871z" fill="#e91e63"/><path d="M284.911 96.504c3.3 0 6.1-1 8.5-2.9 2.4-2 3.7-4.4 4-7.4h8.5c-.1 3.1-1.2 6-3.1 8.7-1.9 2.7-4.5 4.9-7.7 6.5-3.2 1.7-6.6 2.5-10.2 2.5-7.2 0-12.9-2.4-17.1-7.2-4.3-4.8-6.4-11.4-6.4-19.7v-1.5c0-5.2.9-9.8 2.8-13.8s4.6-7.1 8.2-9.3c3.5-2.2 7.7-3.3 12.5-3.3 5.9 0 10.8 1.8 14.7 5.3 4 3.6 6.1 8.2 6.3 13.8h-8.5c-.3-3.4-1.6-6.2-3.9-8.4s-5.2-3.3-8.6-3.3c-4.6 0-8.2 1.7-10.7 5s-3.8 8.1-3.8 14.3v1.7c0 6.1 1.3 10.8 3.8 14.1 2.5 3.3 6.1 4.9 10.7 4.9zM311.854 27.904h9v75h-9zM327.922 76.004c0-5.2 1.1-9.8 3.1-14 2-4.1 4.9-7.3 8.5-9.5 3.6-2.3 7.8-3.4 12.4-3.4 7.2 0 13 2.5 17.5 7.5 4.4 4.9 6.6 11.6 6.6 19.8v.7c0 5.1-.9 9.7-2.9 13.8-2 4.1-4.8 7.3-8.5 9.6-3.6 2.2-7.8 3.4-12.6 3.4-7.1 0-12.9-2.5-17.4-7.5-4.4-5-6.7-11.6-6.7-19.8v-.6zm9.1 1.1c0 5.8 1.4 10.5 4.1 14.1 2.7 3.5 6.4 5.3 10.9 5.3 4.6 0 8.3-1.8 11-5.4 2.7-3.6 4-8.6 4-15.1 0-5.8-1.4-10.5-4.1-14.1-2.8-3.6-6.4-5.4-11-5.4-4.4 0-8 1.8-10.8 5.3-2.7 3.6-4.1 8.7-4.1 15.3zM415.053 97.704c-3.6 4.1-8.7 6.2-15.5 6.2-5.7 0-9.9-1.7-12.9-4.9-2.9-3.3-4.4-8.1-4.5-14.6v-34.3h9.1v34.1c0 8 3.2 12 9.7 12 6.9 0 11.5-2.6 13.8-7.7v-38.4h9v52.8h-8.6l-.1-5.2zM430.28 76.004c0-8.1 2-14.6 5.8-19.5s8.9-7.4 15.1-7.4c6.2 0 11.1 2.1 14.7 6.3v-27.5h9v75h-8.3l-.4-5.7c-3.6 4.5-8.7 6.7-15.1 6.7-6.1 0-11.1-2.5-15-7.5-3.8-5.1-5.8-11.6-5.8-19.7v-.7zm9.1 1.1c0 6 1.2 10.6 3.7 14 2.5 3.4 5.9 5.1 10.2 5.1 5.8 0 9.9-2.6 12.6-7.7v-24.3c-2.7-5-6.9-7.4-12.5-7.4-4.4 0-7.8 1.7-10.3 5.1-2.5 3.4-3.7 8.5-3.7 15.2zM521.133 90.604l13.1-40.5h9.2l-19 52.8h-6.8l-19.2-52.8h9.2l13.5 40.5zM572.67 58.204c-1.4-.3-2.9-.4-4.5-.4-5.9 0-9.9 2.6-12 7.6v37.5h-9.1v-52.8h8.8l.2 6.1c2.9-4.7 7.1-7.1 12.6-7.1 1.7 0 3.1.2 4 .7v8.4z" fill="#fff" fill-rule="nonzero"/><g><path d="M164.489 44.991V19.85h38.267v.009l.042-.001c10.137 0 18.367 7.854 18.367 17.528l-.001.192v76.253h-56.675v-4.068c-5.694 3.151-12.295 4.954-19.331 4.954-11.963 0-22.669-5.211-29.796-13.4l-4.254 12.499-65.925-.028c-.314.01-.63.015-.947.015-13.452 0-24.374-9.035-24.374-20.164l.001-.219V71.329h-7.697V40.994h7.697V28.025h28.433c3.273-4.825 8.963-8.02 15.429-8.02 10.137 0 18.367 7.853 18.367 17.527 0 .858-.065 1.702-.19 2.527h61.91c.447-.015.895-.022 1.346-.022 7.036 0 13.637 1.803 19.331 4.954z" fill="#fff"/></g><g><path d="M43.986 37.999v12.989h9.033v10.351h-9.033v26.367c0 1.954.374 3.353 1.123 4.2.748.846 2.181 1.269 4.296 1.269 1.563 0 2.946-.114 4.151-.342v10.694a29.06 29.06 0 0 1-8.545 1.269c-9.896 0-14.941-4.996-15.137-14.99V61.339h-7.715V50.988h7.715V37.999h14.112zm76.015 38.916c0-5.24 1.009-9.912 3.028-14.013 2.018-4.102 4.923-7.276 8.715-9.522 3.793-2.246 8.195-3.369 13.208-3.369 7.129 0 12.948 2.181 17.456 6.543 4.509 4.362 7.024 10.287 7.544 17.774l.098 3.613c0 8.105-2.262 14.608-6.787 19.507-4.525 4.899-10.596 7.348-18.213 7.348-7.617 0-13.696-2.441-18.237-7.324-4.541-4.883-6.812-11.523-6.812-19.922v-.635zm68.633 26.905h-14.16v-75h14.16v75zm-117.861 0h-14.16V50.988h14.16v52.832zm139.375 0h-14.16V50.988h14.16v52.832zm-106.241 0H90.431L72.609 50.988h14.746l9.814 35.595 9.815-35.595h14.746l-17.823 52.832zm30.206-25.903c0 5.021.944 8.86 2.832 11.517s4.589 3.985 8.105 3.985c3.418 0 6.087-1.312 8.008-3.936 1.92-2.625 2.881-6.822 2.881-12.593 0-4.923-.961-8.737-2.881-11.443-1.921-2.706-4.623-4.059-8.106-4.059-3.45 0-6.119 1.345-8.007 4.035-1.888 2.689-2.832 6.854-2.832 12.494zM55.782 37.316c0-2.116.708-3.858 2.124-5.225 1.416-1.367 3.345-2.051 5.787-2.051 2.408 0 4.329.684 5.761 2.051 1.433 1.367 2.149 3.109 2.149 5.225 0 2.148-.725 3.906-2.173 5.273-1.449 1.367-3.361 2.051-5.737 2.051-2.377 0-4.289-.684-5.738-2.051-1.448-1.367-2.173-3.125-2.173-5.273zm139.375 0c0-2.116.708-3.858 2.124-5.225 1.416-1.367 3.345-2.051 5.787-2.051 2.408 0 4.329.684 5.761 2.051 1.433 1.367 2.149 3.109 2.149 5.225 0 2.148-.725 3.906-2.173 5.273-1.449 1.367-3.361 2.051-5.737 2.051-2.377 0-4.289-.684-5.738-2.051-1.448-1.367-2.173-3.125-2.173-5.273z" fill-rule="nonzero"/></g><g><path fill="#f44336" d="M261.362 118.043h172.5v55.7h-172.5z"/><path d="M294.535 156.463h-12.85l-2.45 7.3h-7.8l13.25-35.55h6.8l13.3 35.55h-7.8l-2.45-7.3zm-10.85-5.95h8.85l-4.45-13.3-4.4 13.3zM312.928 157.863h15.55v5.9h-22.9v-35.55h7.35v29.65zM337.503 151.263v12.5h-7.35v-35.55h13.9c2.65 0 5 .5 7.05 1.45 2 1 3.55 2.4 4.65 4.2 1.1 1.8 1.65 3.85 1.65 6.1 0 3.5-1.2 6.25-3.6 8.25-2.35 2-5.65 3.05-9.9 3.05h-6.4zm0-5.95h6.55c1.95 0 3.4-.45 4.4-1.35 1.05-.95 1.55-2.25 1.55-3.95 0-1.7-.5-3.15-1.55-4.2-1-1.1-2.45-1.65-4.25-1.65h-6.7v11.15zM388.854 163.763h-7.3v-15.25h-14.3v15.25h-7.35v-35.55h7.35v14.4h14.3v-14.4h7.3v35.55zM413.271 156.463h-12.85l-2.45 7.3h-7.8l13.25-35.55h6.8l13.3 35.55h-7.8l-2.45-7.3zm-10.85-5.95h8.85l-4.45-13.3-4.4 13.3z" fill="#fff" fill-rule="nonzero"/></g></svg>