<svg viewBox="0 0 250 204" xmlns="http://www.w3.org/2000/svg" fill-rule="evenodd" clip-rule="evenodd" stroke-linejoin="round" stroke-miterlimit="1.414"><path d="M78.62 203.138c94.34 0 145.94-78.16 145.94-145.94 0-2.22 0-4.43-.15-6.63A104.356 104.356 0 0 0 250 24.018a102.39 102.39 0 0 1-29.46 8.07 51.479 51.479 0 0 0 22.55-28.37 102.806 102.806 0 0 1-32.57 12.45A51.359 51.359 0 0 0 173.121 0c-28.165 0-51.34 23.176-51.34 51.34 0 3.907.446 7.802 1.329 11.608A145.687 145.687 0 0 1 17.4 9.358c-13.537 23.304-6.533 53.504 15.88 68.47A50.912 50.912 0 0 1 10 71.408v.65c.007 24.323 17.308 45.464 41.15 50.28a51.222 51.222 0 0 1-23.16.88c6.703 20.842 26.031 35.209 47.92 35.62a102.944 102.944 0 0 1-63.7 22 104.461 104.461 0 0 1-12.21-.74 145.228 145.228 0 0 0 78.62 23" fill="#1da1f2" fill-rule="nonzero"/></svg>